<svg xmlns="http://www.w3.org/2000/svg" xmlns:xlink="http://www.w3.org/1999/xlink" version="1.1" x="0px" y="0px" viewBox="0 0 32 32" style="enable-background:new 0 0 32 32;" xml:space="preserve"><style type="text/css">
	.st0{fill:none;}
</style><path class="st0" d="M10.2,19.7l1.7,10.5h1.5l-0.9-9.9C11.6,20.4,10.8,20.1,10.2,19.7z"></path><path class="st0" d="M21.9,19.5c-0.6,0.4-1.3,0.7-2.1,0.8l-0.9,10h1.5L21.9,19.5z"></path><path class="st0" d="M18.8,20.4C18.8,20.4,18.8,20.4,18.8,20.4c-0.8,0-1.6-0.2-2.3-0.5v10.3H18L18.8,20.4z"></path><path class="st0" d="M13.4,20.3l0.9,9.9h1.3V19.5c0,0,0,0,0,0C15,19.9,14.2,20.2,13.4,20.3z"></path><path class="st0" d="M7.9,20.1l1.9,10.2h1.1L9.2,19.5C8.8,19.8,8.4,20,7.9,20.1z"></path><path class="st0" d="M6,20.4C6,20.4,5.9,20.4,6,20.4l2.1,9.9h0.8L7,20.3C6.7,20.4,6.3,20.4,6,20.4z"></path><path class="st0" d="M27,13.2l-1.1,0.2l0.4-1c0.1-0.4,0.2-0.7,0.2-1.1c0-1.7-1.4-3-3-3c-0.1,0-0.2,0-0.3,0l-0.7,0.1  l0-0.7c0-1.4-1.2-2.6-2.6-2.6l0,0h-0.6l0-0.6C19.2,3.1,18.1,2,16.8,2c-0.1,0-0.2,0-0.3,0c0.2,0.5,0.2,1,0,1.6  c-0.4,1-1.6,1.9-3.3,1.7c-1.8-0.1-3.1,1.5-3.4,2.9L9.7,8.8l-0.5,0c0,0,0,0-0.1,0C6.8,8.8,5,10.7,5,13c0,0,0,0,0,0.1l0,0.6l-0.4,0.1  c-1.2,0.4-2.1,1.6-2.1,2.9c0,0,0,0.1,0,0.1l0,0.1l0,0.1c0,0.9,0.9,1.7,2.2,2.1c0.3,0.1,0.6,0.1,1,0.2c0.1,0,0.2,0,0.4,0  c1.3,0,2.5-0.5,3.1-1.2l0.5-0.6L10,18c0.5,0.7,1.5,1.2,2.6,1.2c1,0,1.9-0.4,2.4-1l0.4-0.4l0.4,0.4c0.8,0.7,1.8,1,2.9,1  c1.3,0,2.5-0.5,3.2-1.4l0.5-0.6l0.5,0.6c0.6,0.8,1.8,1.6,3.1,1.4c0.1,0,0.3,0,0.4-0.1c0.4-0.1,0.7-0.2,1-0.4c0.6-0.3,1-0.8,1.3-1.5  c0.4-1.1,0.2-2.6-0.5-3.5C28.1,13.4,27.6,13.1,27,13.2z M20.8,8.4c0.6,0,1.1,0.5,1.1,1.1c0,0.3-0.1,0.5-0.2,0.7l-0.7-0.6l0.4,0.9  c-0.2,0.1-0.3,0.2-0.5,0.2c-0.6,0-1.1-0.5-1.1-1.1C19.7,8.9,20.2,8.4,20.8,8.4z M12.3,8.4c0.6,0,1.1,0.5,1.1,1.1  c0,0.3-0.1,0.5-0.2,0.7l-0.7-0.6l0.4,0.9c-0.2,0.1-0.3,0.2-0.5,0.2c-0.6,0-1.1-0.5-1.1-1.1C11.3,8.9,11.7,8.4,12.3,8.4z M18.1,16.3  c-0.5,0.1-1.1,0.1-1.7,0.1c-0.5,0-1,0-1.4-0.1c-0.1,0-0.2,0-0.3,0c-2.5-0.4-4-1.6-4.1-3.1l0.9,0c0,1.1,1.4,1.9,3.5,2.2  c2.6,0.3,5.7-0.4,6.3-2.3l0.9,0.3C21.8,15,20.1,15.9,18.1,16.3z"></path><path class="st0" d="M24.3,20.2c-0.6-0.2-1.1-0.5-1.5-0.8l-1.5,10.9h1.1L24.3,20.2z"></path><path class="st0" d="M25.2,20.4l-1.8,9.9h0.7l2.2-9.9c-0.2,0-0.3,0-0.5,0C25.6,20.4,25.4,20.4,25.2,20.4z"></path><path d="M29.3,13c-0.4-0.5-1-0.9-1.6-1c0-0.3,0.1-0.5,0.1-0.8c0-2.3-1.8-4.1-4.1-4.2c-0.3-1.7-1.6-3-3.3-3.2  c-0.4-1.7-1.9-2.9-3.7-2.9c-0.6,0-1.1,0.1-1.6,0.4l-0.9,0.4l0.8,0.6c0.4,0.4,0.4,0.8,0.3,1c-0.2,0.5-1,1.1-2.1,1  c-2.3-0.1-4,1.6-4.5,3.5C6,7.8,3.8,10,3.7,12.7c-1.5,0.7-2.5,2.2-2.5,3.9c0,0.1,0,0.1,0,0.2l0,0c0,0,0,0.1,0,0.1  c0,1.7,1.6,3,3.7,3.4l2.4,10.9h17.5l2.4-11c1.3-0.4,2.3-1.3,2.7-2.5C30.6,16.2,30.3,14.2,29.3,13z M8.1,30.3l-2.2-9.9  c0,0,0.1,0,0.1,0c0.4,0,0.7,0,1-0.1l1.9,10H8.1z M9.8,30.3L7.9,20.1c0.5-0.1,0.9-0.4,1.3-0.6l1.8,10.8H9.8z M11.9,30.3l-1.7-10.5  c0.7,0.4,1.5,0.6,2.3,0.7l0.9,9.9H11.9z M15.6,30.3h-1.3l-0.9-9.9c0.8-0.1,1.6-0.4,2.2-0.9c0,0,0,0,0,0V30.3z M16.5,20  c0.7,0.3,1.5,0.5,2.3,0.5c0,0,0,0,0,0L18,30.3h-1.4V20z M19.8,20.3c0.8-0.1,1.5-0.4,2.1-0.8l-1.5,10.7h-1.5L19.8,20.3z M22.8,19.3  c0.4,0.3,0.9,0.6,1.5,0.8l-1.9,10.1h-1.1L22.8,19.3z M24.1,30.3h-0.7l1.8-9.9c0.2,0,0.4,0,0.5,0c0.2,0,0.3,0,0.5,0L24.1,30.3z   M28.9,17.3c-0.2,0.6-0.7,1.1-1.3,1.5c-0.3,0.2-0.6,0.3-1,0.4c-0.1,0-0.3,0.1-0.4,0.1c-1.3,0.2-2.5-0.6-3.1-1.4l-0.5-0.6l-0.5,0.6  c-0.8,0.9-2,1.4-3.2,1.4c-1.1,0-2.1-0.4-2.9-1l-0.4-0.4l-0.4,0.4c-0.6,0.6-1.5,1-2.4,1c-1.1,0-2.1-0.4-2.6-1.2l-0.5-0.6L9.1,18  c-0.6,0.7-1.8,1.2-3.1,1.2c-0.1,0-0.2,0-0.4,0c-0.3,0-0.7-0.1-1-0.2c-1.3-0.3-2.2-1.1-2.2-2.1l0-0.1l0-0.1c0,0,0-0.1,0-0.1  c0-1.3,0.8-2.5,2.1-2.9L5,13.6L5,13c0,0,0,0,0-0.1c0-2.3,1.9-4.2,4.2-4.2c0,0,0,0,0.1,0l0.5,0l0.1-0.5c0.3-1.5,1.6-3,3.4-2.9  c1.7,0.2,2.9-0.7,3.3-1.7c0.2-0.5,0.2-1.1,0-1.6c0.1,0,0.2,0,0.3,0c1.3,0,2.4,1,2.5,2.3l0,0.6h0.6l0,0c1.4,0,2.6,1.2,2.6,2.6l0,0.7  l0.7-0.1c0.1,0,0.2,0,0.3,0c1.7,0,3,1.4,3,3c0,0.4-0.1,0.8-0.2,1.1l-0.4,1l1.1-0.2c0.6-0.1,1,0.3,1.3,0.6  C29.1,14.6,29.3,16.2,28.9,17.3z"></path><path d="M20.8,10.6c0.2,0,0.4-0.1,0.5-0.2l-0.4-0.9l0.7,0.6c0.1-0.2,0.2-0.4,0.2-0.7c0-0.6-0.5-1.1-1.1-1.1  c-0.6,0-1.1,0.5-1.1,1.1C19.7,10.1,20.2,10.6,20.8,10.6z"></path><path d="M12.3,10.6c0.2,0,0.4-0.1,0.5-0.2l-0.4-0.9l0.7,0.6c0.1-0.2,0.2-0.4,0.2-0.7c0-0.6-0.5-1.1-1.1-1.1  c-0.6,0-1.1,0.5-1.1,1.1C11.3,10.1,11.7,10.6,12.3,10.6z"></path><path d="M15.1,15.4c-2.1-0.3-3.5-1.2-3.5-2.2l-0.9,0c0.1,1.5,1.6,2.7,4.1,3.1c0.1,0,0.2,0,0.3,0  c0.5,0.1,0.9,0.1,1.4,0.1c0.6,0,1.1,0,1.7-0.1c2-0.3,3.7-1.3,4.2-2.9L21.4,13C20.8,15,17.7,15.7,15.1,15.4z"></path></svg>